<mxfile host="app.diagrams.net" agent="Mozilla/5.0 (Windows NT 10.0; Win64; x64) AppleWebKit/537.36 (KHTML, like Gecko) Chrome/138.0.0.0 Safari/537.36" version="28.2.3">
  <diagram name="Página-1" id="eLgbo8yA9Sdz26upUzBx">
    <mxGraphModel dx="1186" dy="755" grid="1" gridSize="10" guides="1" tooltips="1" connect="1" arrows="1" fold="1" page="1" pageScale="1" pageWidth="827" pageHeight="1169" background="none" math="0" shadow="0">
      <root>
        <mxCell id="0" />
        <mxCell id="1" parent="0" />
        <mxCell id="HaZMbfx3c9rFb4fbOA_z-1" value="FUNCIONARIO" style="rounded=0;whiteSpace=wrap;html=1;" vertex="1" parent="1">
          <mxGeometry x="220" y="155" width="120" height="60" as="geometry" />
        </mxCell>
        <mxCell id="HaZMbfx3c9rFb4fbOA_z-2" value="DEPARTAMENTO" style="rounded=0;whiteSpace=wrap;html=1;" vertex="1" parent="1">
          <mxGeometry x="74" y="410" width="120" height="60" as="geometry" />
        </mxCell>
        <mxCell id="HaZMbfx3c9rFb4fbOA_z-3" value="PROJECTO" style="rounded=0;whiteSpace=wrap;html=1;" vertex="1" parent="1">
          <mxGeometry x="620" y="345" width="120" height="60" as="geometry" />
        </mxCell>
        <mxCell id="HaZMbfx3c9rFb4fbOA_z-6" value="Nome" style="ellipse;whiteSpace=wrap;html=1;" vertex="1" parent="1">
          <mxGeometry x="380" y="185" width="80" height="50" as="geometry" />
        </mxCell>
        <mxCell id="HaZMbfx3c9rFb4fbOA_z-7" value="Email ?" style="ellipse;whiteSpace=wrap;html=1;" vertex="1" parent="1">
          <mxGeometry x="310" y="225" width="80" height="50" as="geometry" />
        </mxCell>
        <mxCell id="HaZMbfx3c9rFb4fbOA_z-8" value="DataNasc" style="ellipse;whiteSpace=wrap;html=1;" vertex="1" parent="1">
          <mxGeometry x="220" y="225" width="80" height="50" as="geometry" />
        </mxCell>
        <mxCell id="HaZMbfx3c9rFb4fbOA_z-9" value="Salario" style="ellipse;whiteSpace=wrap;html=1;" vertex="1" parent="1">
          <mxGeometry x="130" y="205" width="80" height="50" as="geometry" />
        </mxCell>
        <mxCell id="HaZMbfx3c9rFb4fbOA_z-10" value="HorasProj" style="ellipse;whiteSpace=wrap;html=1;" vertex="1" parent="1">
          <mxGeometry x="140" y="115" width="80" height="50" as="geometry" />
        </mxCell>
        <mxCell id="HaZMbfx3c9rFb4fbOA_z-11" value="Departamento" style="ellipse;whiteSpace=wrap;html=1;" vertex="1" parent="1">
          <mxGeometry x="324" y="75" width="80" height="50" as="geometry" />
        </mxCell>
        <mxCell id="HaZMbfx3c9rFb4fbOA_z-12" value="Supervisor ?" style="ellipse;whiteSpace=wrap;html=1;" vertex="1" parent="1">
          <mxGeometry x="200" y="45" width="80" height="50" as="geometry" />
        </mxCell>
        <mxCell id="HaZMbfx3c9rFb4fbOA_z-13" value="" style="endArrow=none;html=1;rounded=0;entryX=0.713;entryY=1;entryDx=0;entryDy=0;entryPerimeter=0;" edge="1" parent="1" target="HaZMbfx3c9rFb4fbOA_z-12">
          <mxGeometry width="50" height="50" relative="1" as="geometry">
            <mxPoint x="280" y="153" as="sourcePoint" />
            <mxPoint x="390" y="225" as="targetPoint" />
            <Array as="points">
              <mxPoint x="270" y="135" />
            </Array>
          </mxGeometry>
        </mxCell>
        <mxCell id="HaZMbfx3c9rFb4fbOA_z-14" value="" style="endArrow=none;html=1;rounded=0;entryX=0.75;entryY=0;entryDx=0;entryDy=0;" edge="1" parent="1" source="HaZMbfx3c9rFb4fbOA_z-11" target="HaZMbfx3c9rFb4fbOA_z-1">
          <mxGeometry width="50" height="50" relative="1" as="geometry">
            <mxPoint x="120" y="185" as="sourcePoint" />
            <mxPoint x="170" y="135" as="targetPoint" />
          </mxGeometry>
        </mxCell>
        <mxCell id="HaZMbfx3c9rFb4fbOA_z-15" value="" style="endArrow=none;html=1;rounded=0;entryX=0.9;entryY=0.7;entryDx=0;entryDy=0;entryPerimeter=0;" edge="1" parent="1" source="HaZMbfx3c9rFb4fbOA_z-1" target="HaZMbfx3c9rFb4fbOA_z-10">
          <mxGeometry width="50" height="50" relative="1" as="geometry">
            <mxPoint x="260" y="145" as="sourcePoint" />
            <mxPoint x="310" y="95" as="targetPoint" />
          </mxGeometry>
        </mxCell>
        <mxCell id="HaZMbfx3c9rFb4fbOA_z-16" value="" style="endArrow=none;html=1;rounded=0;entryX=0;entryY=1;entryDx=0;entryDy=0;exitX=1;exitY=0;exitDx=0;exitDy=0;" edge="1" parent="1" source="HaZMbfx3c9rFb4fbOA_z-9" target="HaZMbfx3c9rFb4fbOA_z-1">
          <mxGeometry width="50" height="50" relative="1" as="geometry">
            <mxPoint x="90" y="315" as="sourcePoint" />
            <mxPoint x="140" y="265" as="targetPoint" />
          </mxGeometry>
        </mxCell>
        <mxCell id="HaZMbfx3c9rFb4fbOA_z-17" value="" style="endArrow=none;html=1;rounded=0;entryX=0.35;entryY=1.033;entryDx=0;entryDy=0;entryPerimeter=0;" edge="1" parent="1" source="HaZMbfx3c9rFb4fbOA_z-8" target="HaZMbfx3c9rFb4fbOA_z-1">
          <mxGeometry width="50" height="50" relative="1" as="geometry">
            <mxPoint x="230" y="395" as="sourcePoint" />
            <mxPoint x="280" y="345" as="targetPoint" />
          </mxGeometry>
        </mxCell>
        <mxCell id="HaZMbfx3c9rFb4fbOA_z-18" value="" style="endArrow=none;html=1;rounded=0;entryX=0.817;entryY=0.967;entryDx=0;entryDy=0;entryPerimeter=0;exitX=0;exitY=0;exitDx=0;exitDy=0;" edge="1" parent="1" source="HaZMbfx3c9rFb4fbOA_z-7" target="HaZMbfx3c9rFb4fbOA_z-1">
          <mxGeometry width="50" height="50" relative="1" as="geometry">
            <mxPoint x="420" y="405" as="sourcePoint" />
            <mxPoint x="470" y="355" as="targetPoint" />
          </mxGeometry>
        </mxCell>
        <mxCell id="HaZMbfx3c9rFb4fbOA_z-19" value="" style="endArrow=none;html=1;rounded=0;entryX=1;entryY=0.5;entryDx=0;entryDy=0;exitX=-0.025;exitY=0.34;exitDx=0;exitDy=0;exitPerimeter=0;" edge="1" parent="1" source="HaZMbfx3c9rFb4fbOA_z-6" target="HaZMbfx3c9rFb4fbOA_z-1">
          <mxGeometry width="50" height="50" relative="1" as="geometry">
            <mxPoint x="330" y="345" as="sourcePoint" />
            <mxPoint x="380" y="295" as="targetPoint" />
          </mxGeometry>
        </mxCell>
        <mxCell id="HaZMbfx3c9rFb4fbOA_z-20" value="" style="endArrow=none;html=1;rounded=0;entryX=1;entryY=0.25;entryDx=0;entryDy=0;exitX=0;exitY=0.5;exitDx=0;exitDy=0;" edge="1" parent="1" target="HaZMbfx3c9rFb4fbOA_z-1">
          <mxGeometry width="50" height="50" relative="1" as="geometry">
            <mxPoint x="400" y="150" as="sourcePoint" />
            <mxPoint x="360" y="315" as="targetPoint" />
          </mxGeometry>
        </mxCell>
        <mxCell id="HaZMbfx3c9rFb4fbOA_z-24" value="Rua" style="ellipse;whiteSpace=wrap;html=1;" vertex="1" parent="1">
          <mxGeometry x="300" y="370" width="80" height="50" as="geometry" />
        </mxCell>
        <mxCell id="HaZMbfx3c9rFb4fbOA_z-25" value="DataInicio" style="ellipse;whiteSpace=wrap;html=1;" vertex="1" parent="1">
          <mxGeometry x="680" y="265" width="80" height="50" as="geometry" />
        </mxCell>
        <mxCell id="HaZMbfx3c9rFb4fbOA_z-29" value="Nome" style="ellipse;whiteSpace=wrap;html=1;align=center;fontStyle=4;" vertex="1" parent="1">
          <mxGeometry x="10" y="355" width="70" height="40" as="geometry" />
        </mxCell>
        <mxCell id="HaZMbfx3c9rFb4fbOA_z-30" value="NumCC" style="ellipse;whiteSpace=wrap;html=1;align=center;fontStyle=4;" vertex="1" parent="1">
          <mxGeometry x="390" y="135" width="100" height="40" as="geometry" />
        </mxCell>
        <mxCell id="HaZMbfx3c9rFb4fbOA_z-32" value="Localização" style="ellipse;shape=doubleEllipse;margin=3;whiteSpace=wrap;html=1;align=center;" vertex="1" parent="1">
          <mxGeometry x="220" y="410" width="80" height="40" as="geometry" />
        </mxCell>
        <mxCell id="HaZMbfx3c9rFb4fbOA_z-33" value="Cidade" style="ellipse;whiteSpace=wrap;html=1;" vertex="1" parent="1">
          <mxGeometry x="310" y="430" width="80" height="50" as="geometry" />
        </mxCell>
        <mxCell id="HaZMbfx3c9rFb4fbOA_z-34" value="Gerente" style="ellipse;whiteSpace=wrap;html=1;" vertex="1" parent="1">
          <mxGeometry x="140" y="330" width="80" height="50" as="geometry" />
        </mxCell>
        <mxCell id="HaZMbfx3c9rFb4fbOA_z-35" value="" style="endArrow=none;html=1;rounded=0;entryX=1;entryY=1;entryDx=0;entryDy=0;exitX=0;exitY=0;exitDx=0;exitDy=0;" edge="1" parent="1" source="HaZMbfx3c9rFb4fbOA_z-2" target="HaZMbfx3c9rFb4fbOA_z-29">
          <mxGeometry width="50" height="50" relative="1" as="geometry">
            <mxPoint x="50" y="460" as="sourcePoint" />
            <mxPoint x="100" y="410" as="targetPoint" />
          </mxGeometry>
        </mxCell>
        <mxCell id="HaZMbfx3c9rFb4fbOA_z-36" value="" style="endArrow=none;html=1;rounded=0;exitX=0.7;exitY=0.067;exitDx=0;exitDy=0;exitPerimeter=0;" edge="1" parent="1" source="HaZMbfx3c9rFb4fbOA_z-2">
          <mxGeometry width="50" height="50" relative="1" as="geometry">
            <mxPoint x="120" y="430" as="sourcePoint" />
            <mxPoint x="170" y="380" as="targetPoint" />
          </mxGeometry>
        </mxCell>
        <mxCell id="HaZMbfx3c9rFb4fbOA_z-37" value="" style="endArrow=none;html=1;rounded=0;entryX=0;entryY=0.5;entryDx=0;entryDy=0;exitX=0.992;exitY=0.4;exitDx=0;exitDy=0;exitPerimeter=0;" edge="1" parent="1" source="HaZMbfx3c9rFb4fbOA_z-2" target="HaZMbfx3c9rFb4fbOA_z-32">
          <mxGeometry width="50" height="50" relative="1" as="geometry">
            <mxPoint x="200" y="530" as="sourcePoint" />
            <mxPoint x="250" y="480" as="targetPoint" />
          </mxGeometry>
        </mxCell>
        <mxCell id="HaZMbfx3c9rFb4fbOA_z-38" value="" style="endArrow=none;html=1;rounded=0;entryX=0.063;entryY=0.66;entryDx=0;entryDy=0;entryPerimeter=0;exitX=0.913;exitY=0.325;exitDx=0;exitDy=0;exitPerimeter=0;" edge="1" parent="1" source="HaZMbfx3c9rFb4fbOA_z-32" target="HaZMbfx3c9rFb4fbOA_z-24">
          <mxGeometry width="50" height="50" relative="1" as="geometry">
            <mxPoint x="230" y="560" as="sourcePoint" />
            <mxPoint x="280" y="510" as="targetPoint" />
          </mxGeometry>
        </mxCell>
        <mxCell id="HaZMbfx3c9rFb4fbOA_z-39" value="" style="endArrow=none;html=1;rounded=0;exitX=0.963;exitY=0.8;exitDx=0;exitDy=0;exitPerimeter=0;" edge="1" parent="1" source="HaZMbfx3c9rFb4fbOA_z-32" target="HaZMbfx3c9rFb4fbOA_z-33">
          <mxGeometry width="50" height="50" relative="1" as="geometry">
            <mxPoint x="250" y="510" as="sourcePoint" />
            <mxPoint x="300" y="460" as="targetPoint" />
          </mxGeometry>
        </mxCell>
        <mxCell id="HaZMbfx3c9rFb4fbOA_z-40" value="Nome" style="ellipse;whiteSpace=wrap;html=1;align=center;fontStyle=4;" vertex="1" parent="1">
          <mxGeometry x="586" y="275" width="64" height="40" as="geometry" />
        </mxCell>
        <mxCell id="HaZMbfx3c9rFb4fbOA_z-41" value="DataFim" style="ellipse;whiteSpace=wrap;html=1;" vertex="1" parent="1">
          <mxGeometry x="754" y="305" width="80" height="50" as="geometry" />
        </mxCell>
        <mxCell id="HaZMbfx3c9rFb4fbOA_z-42" value="Departamento" style="ellipse;whiteSpace=wrap;html=1;" vertex="1" parent="1">
          <mxGeometry x="770" y="385" width="80" height="50" as="geometry" />
        </mxCell>
        <mxCell id="HaZMbfx3c9rFb4fbOA_z-43" value="Director" style="ellipse;whiteSpace=wrap;html=1;" vertex="1" parent="1">
          <mxGeometry x="714" y="435" width="80" height="50" as="geometry" />
        </mxCell>
        <mxCell id="HaZMbfx3c9rFb4fbOA_z-44" value="Trabalho" style="ellipse;shape=doubleEllipse;margin=3;whiteSpace=wrap;html=1;align=center;" vertex="1" parent="1">
          <mxGeometry x="510" y="355" width="76" height="40" as="geometry" />
        </mxCell>
        <mxCell id="HaZMbfx3c9rFb4fbOA_z-45" value="Horas" style="ellipse;whiteSpace=wrap;html=1;" vertex="1" parent="1">
          <mxGeometry x="440" y="295" width="80" height="50" as="geometry" />
        </mxCell>
        <mxCell id="HaZMbfx3c9rFb4fbOA_z-46" value="Funcionario" style="ellipse;whiteSpace=wrap;html=1;" vertex="1" parent="1">
          <mxGeometry x="440" y="395" width="80" height="50" as="geometry" />
        </mxCell>
        <mxCell id="HaZMbfx3c9rFb4fbOA_z-47" value="" style="endArrow=none;html=1;rounded=0;entryX=1;entryY=1;entryDx=0;entryDy=0;exitX=0.263;exitY=0;exitDx=0;exitDy=0;exitPerimeter=0;" edge="1" parent="1" source="HaZMbfx3c9rFb4fbOA_z-44" target="HaZMbfx3c9rFb4fbOA_z-45">
          <mxGeometry width="50" height="50" relative="1" as="geometry">
            <mxPoint x="430" y="255" as="sourcePoint" />
            <mxPoint x="480" y="205" as="targetPoint" />
          </mxGeometry>
        </mxCell>
        <mxCell id="HaZMbfx3c9rFb4fbOA_z-48" value="" style="endArrow=none;html=1;rounded=0;entryX=0;entryY=1;entryDx=0;entryDy=0;" edge="1" parent="1" source="HaZMbfx3c9rFb4fbOA_z-46" target="HaZMbfx3c9rFb4fbOA_z-44">
          <mxGeometry width="50" height="50" relative="1" as="geometry">
            <mxPoint x="400" y="405" as="sourcePoint" />
            <mxPoint x="450" y="355" as="targetPoint" />
          </mxGeometry>
        </mxCell>
        <mxCell id="HaZMbfx3c9rFb4fbOA_z-49" value="" style="endArrow=none;html=1;rounded=0;entryX=0;entryY=0.5;entryDx=0;entryDy=0;exitX=1;exitY=0.5;exitDx=0;exitDy=0;" edge="1" parent="1" source="HaZMbfx3c9rFb4fbOA_z-44" target="HaZMbfx3c9rFb4fbOA_z-3">
          <mxGeometry width="50" height="50" relative="1" as="geometry">
            <mxPoint x="550" y="475" as="sourcePoint" />
            <mxPoint x="600" y="425" as="targetPoint" />
          </mxGeometry>
        </mxCell>
        <mxCell id="HaZMbfx3c9rFb4fbOA_z-50" value="" style="endArrow=none;html=1;rounded=0;entryX=0.133;entryY=-0.05;entryDx=0;entryDy=0;entryPerimeter=0;" edge="1" parent="1" target="HaZMbfx3c9rFb4fbOA_z-3">
          <mxGeometry width="50" height="50" relative="1" as="geometry">
            <mxPoint x="620" y="315" as="sourcePoint" />
            <mxPoint x="640" y="215" as="targetPoint" />
          </mxGeometry>
        </mxCell>
        <mxCell id="HaZMbfx3c9rFb4fbOA_z-51" value="" style="endArrow=none;html=1;rounded=0;entryX=0.5;entryY=1;entryDx=0;entryDy=0;exitX=0.75;exitY=0;exitDx=0;exitDy=0;" edge="1" parent="1" source="HaZMbfx3c9rFb4fbOA_z-3" target="HaZMbfx3c9rFb4fbOA_z-25">
          <mxGeometry width="50" height="50" relative="1" as="geometry">
            <mxPoint x="620" y="255" as="sourcePoint" />
            <mxPoint x="670" y="205" as="targetPoint" />
          </mxGeometry>
        </mxCell>
        <mxCell id="HaZMbfx3c9rFb4fbOA_z-53" value="" style="endArrow=none;html=1;rounded=0;entryX=0;entryY=1;entryDx=0;entryDy=0;exitX=1;exitY=0.25;exitDx=0;exitDy=0;" edge="1" parent="1" source="HaZMbfx3c9rFb4fbOA_z-3" target="HaZMbfx3c9rFb4fbOA_z-41">
          <mxGeometry width="50" height="50" relative="1" as="geometry">
            <mxPoint x="730" y="395" as="sourcePoint" />
            <mxPoint x="780" y="345" as="targetPoint" />
          </mxGeometry>
        </mxCell>
        <mxCell id="HaZMbfx3c9rFb4fbOA_z-54" value="" style="endArrow=none;html=1;rounded=0;entryX=0.75;entryY=1;entryDx=0;entryDy=0;exitX=0;exitY=0;exitDx=0;exitDy=0;" edge="1" parent="1" source="HaZMbfx3c9rFb4fbOA_z-43" target="HaZMbfx3c9rFb4fbOA_z-3">
          <mxGeometry width="50" height="50" relative="1" as="geometry">
            <mxPoint x="660" y="485" as="sourcePoint" />
            <mxPoint x="710" y="435" as="targetPoint" />
          </mxGeometry>
        </mxCell>
        <mxCell id="HaZMbfx3c9rFb4fbOA_z-55" value="" style="endArrow=none;html=1;rounded=0;entryX=1;entryY=0.75;entryDx=0;entryDy=0;exitX=-0.012;exitY=0.38;exitDx=0;exitDy=0;exitPerimeter=0;" edge="1" parent="1" source="HaZMbfx3c9rFb4fbOA_z-42" target="HaZMbfx3c9rFb4fbOA_z-3">
          <mxGeometry width="50" height="50" relative="1" as="geometry">
            <mxPoint x="700" y="455" as="sourcePoint" />
            <mxPoint x="750" y="405" as="targetPoint" />
          </mxGeometry>
        </mxCell>
      </root>
    </mxGraphModel>
  </diagram>
</mxfile>
